<svg xmlns="http://www.w3.org/2000/svg" xmlns:xlink="http://www.w3.org/1999/xlink" width="1000" zoomAndPan="magnify" viewBox="0 0 750 374.999991" height="500" preserveAspectRatio="xMidYMid meet" version="1.0"><defs><g/><clipPath id="9ef6e71119"><path d="M 26 14 L 306 14 L 306 294 L 26 294 Z M 26 14 " clip-rule="nonzero"/></clipPath><clipPath id="a1a07ad9bf"><path d="M -31.292969 153.757812 L 165.992188 -43.527344 L 363.273438 153.757812 L 165.992188 351.039062 Z M -31.292969 153.757812 " clip-rule="nonzero"/></clipPath><clipPath id="7c951c74de"><path d="M -31.292969 153.757812 L 165.992188 -43.527344 L 363.273438 153.757812 L 165.992188 351.039062 Z M -31.292969 153.757812 " clip-rule="nonzero"/></clipPath></defs><rect x="-75" width="900" fill="#ffffff" y="-37.499999" height="449.999989" fill-opacity="1"/><rect x="-75" width="900" fill="#ffffff" y="-37.499999" height="449.999989" fill-opacity="1"/><rect x="-75" width="900" fill="#ffffff" y="-37.499999" height="449.999989" fill-opacity="1"/><g clip-path="url(#9ef6e71119)"><g clip-path="url(#a1a07ad9bf)"><g clip-path="url(#7c951c74de)"><path fill="#56aeff" d="M 67.34375 55.082031 C 12.957031 109.472656 12.957031 197.96875 67.34375 252.355469 C 121.734375 306.746094 210.230469 306.746094 264.621094 252.355469 C 319.007812 197.96875 319.007812 109.472656 264.617188 55.082031 C 210.230469 0.695312 121.734375 0.695312 67.34375 55.082031 Z M 224.863281 137.1875 C 218.441406 129.667969 211.625 122.273438 204.527344 115.175781 C 196.402344 107.054688 187.894531 99.289062 179.246094 92.085938 C 207.359375 71.609375 230.214844 62.835938 243.367188 63.289062 C 245.6875 65.277344 247.972656 67.335938 250.167969 69.535156 C 257.109375 76.472656 249.027344 103.570312 224.863281 137.1875 Z M 81.796875 237.90625 C 79.527344 235.636719 77.40625 233.28125 75.359375 230.882812 C 74.820312 216.546875 85.59375 191.773438 106.808594 163.574219 C 107.761719 164.726562 108.71875 165.878906 109.691406 167.023438 C 112.089844 169.84375 114.574219 172.675781 117.074219 175.441406 C 121.316406 180.132812 125.777344 184.820312 130.328125 189.371094 C 137.675781 196.722656 145.226562 203.636719 152.859375 210.113281 C 117.671875 236.210938 88.96875 245.078125 81.796875 237.90625 Z M 162.75 202.449219 C 154.703125 195.722656 146.742188 188.445312 139 180.703125 C 134.59375 176.292969 130.277344 171.757812 126.167969 167.214844 C 123.753906 164.542969 121.351562 161.804688 119.035156 159.078125 C 117.515625 157.296875 116.03125 155.496094 114.5625 153.695312 C 121.761719 144.882812 129.902344 135.832031 139 126.738281 L 130.328125 118.066406 C 122.113281 126.285156 114.207031 134.988281 106.871094 143.871094 C 84.589844 114.195312 75.078125 90.011719 75.550781 76.332031 C 77.539062 74.011719 79.601562 71.730469 81.796875 69.535156 C 91.386719 59.941406 139.464844 79.019531 190.074219 129.628906 C 198.222656 137.773438 205.542969 145.855469 212.066406 153.71875 C 205.542969 161.585938 198.222656 169.664062 190.074219 177.8125 C 180.804688 187.078125 171.628906 195.277344 162.75 202.449219 Z M 228.808594 52.617188 C 210.574219 57.117188 189.007812 69.519531 169.355469 84.144531 C 148.105469 67.730469 126.523438 55.203125 107.96875 49.78125 C 145.523438 28.839844 192.070312 29.785156 228.808594 52.617188 Z M 64.878906 90.890625 C 69.644531 110.191406 83.261719 133.226562 98.992188 153.769531 C 82.160156 175.765625 69.445312 198.179688 64.929688 216.625 C 41.058594 178.285156 41.042969 129.246094 64.878906 90.890625 Z M 107.96875 257.660156 C 137.035156 249.160156 173.539062 223.246094 204.527344 192.261719 C 211.625 185.164062 218.445312 177.773438 224.863281 170.25 C 249.027344 203.871094 257.109375 230.964844 250.167969 237.90625 C 247.960938 240.113281 245.667969 242.179688 243.335938 244.179688 C 232.230469 244.59375 213.804688 238.5 189.382812 222.398438 L 182.636719 232.636719 C 200.125 244.167969 215.8125 251.589844 228.921875 254.753906 C 192.160156 277.652344 145.5625 278.621094 107.96875 257.660156 Z M 269.921875 211.734375 C 264.785156 194.160156 253.292969 173.871094 238.144531 153.71875 C 253.292969 133.566406 264.785156 113.277344 269.921875 95.703125 C 289.957031 131.640625 289.960938 175.800781 269.921875 211.734375 Z M 269.921875 211.734375 " fill-opacity="1" fill-rule="nonzero"/></g></g></g><g fill="#000000" fill-opacity="1"><g transform="translate(207.360304, 148.799901)"><g/></g></g><g fill="#000000" fill-opacity="1"><g transform="translate(221.973584, 148.799901)"><g/></g></g><g fill="#000000" fill-opacity="1"><g transform="translate(236.586865, 148.799901)"><g/></g></g><g fill="#000000" fill-opacity="1"><g transform="translate(251.200145, 148.799901)"><g/></g></g><g fill="#000000" fill-opacity="1"><g transform="translate(265.813425, 148.799901)"><g/></g></g><g fill="#000000" fill-opacity="1"><g transform="translate(280.426705, 148.799901)"><g/></g></g><g fill="#000000" fill-opacity="1"><g transform="translate(295.039986, 148.799901)"><g/></g></g><g fill="#000000" fill-opacity="1"><g transform="translate(309.653266, 148.799901)"><g><path d="M 4.40625 -44.09375 L 23.375 -44.09375 C 30.300781 -44.09375 35.9375 -42.054688 40.28125 -37.984375 C 44.632812 -33.910156 46.8125 -28.597656 46.8125 -22.046875 C 46.8125 -15.535156 44.601562 -10.234375 40.1875 -6.140625 C 35.78125 -2.046875 30.03125 0 22.9375 0 L 4.40625 0 Z M 15.625 -35.15625 L 15.625 -8.953125 L 23.625 -8.953125 C 27.070312 -8.953125 29.894531 -10.15625 32.09375 -12.5625 C 34.300781 -14.976562 35.40625 -18.117188 35.40625 -21.984375 C 35.40625 -25.847656 34.25 -29.007812 31.9375 -31.46875 C 29.625 -33.925781 26.6875 -35.15625 23.125 -35.15625 Z M 15.625 -35.15625 "/></g></g></g><g fill="#000000" fill-opacity="1"><g transform="translate(357.965275, 148.799901)"><g><path d="M 15.625 0 L 4.40625 0 L 4.40625 -44.09375 L 15.625 -44.09375 Z M 15.625 0 "/></g></g></g><g fill="#000000" fill-opacity="1"><g transform="translate(377.995547, 148.799901)"><g><path d="M 33.703125 -22.421875 L 43.40625 -22.421875 L 43.40625 -5.234375 C 41.007812 -3.546875 38.117188 -2.164062 34.734375 -1.09375 C 31.359375 -0.03125 28.140625 0.5 25.078125 0.5 C 18.359375 0.5 12.75 -1.648438 8.25 -5.953125 C 3.757812 -10.253906 1.515625 -15.617188 1.515625 -22.046875 C 1.515625 -28.429688 3.820312 -33.765625 8.4375 -38.046875 C 13.0625 -42.335938 18.859375 -44.484375 25.828125 -44.484375 C 29.109375 -44.484375 32.363281 -43.894531 35.59375 -42.71875 C 38.832031 -41.539062 41.582031 -39.941406 43.84375 -37.921875 L 37.546875 -30.296875 C 35.953125 -31.773438 34.101562 -32.941406 32 -33.796875 C 29.90625 -34.660156 27.828125 -35.09375 25.765625 -35.09375 C 22.148438 -35.09375 19.113281 -33.84375 16.65625 -31.34375 C 14.207031 -28.84375 12.984375 -25.742188 12.984375 -22.046875 C 12.984375 -18.304688 14.21875 -15.175781 16.6875 -12.65625 C 19.164062 -10.144531 22.234375 -8.890625 25.890625 -8.890625 C 28.242188 -8.890625 30.847656 -9.601562 33.703125 -11.03125 Z M 33.703125 -22.421875 "/></g></g></g><g fill="#000000" fill-opacity="1"><g transform="translate(424.795837, 148.799901)"><g><path d="M 15.625 0 L 4.40625 0 L 4.40625 -44.09375 L 15.625 -44.09375 Z M 15.625 0 "/></g></g></g><g fill="#000000" fill-opacity="1"><g transform="translate(444.826109, 148.799901)"><g><path d="M 38.109375 -35.09375 L 24.828125 -35.09375 L 24.828125 0 L 13.609375 0 L 13.609375 -35.09375 L 0.4375 -35.09375 L 0.4375 -44.15625 L 38.109375 -44.15625 Z M 38.109375 -35.09375 "/></g></g></g><g fill="#000000" fill-opacity="1"><g transform="translate(483.311946, 148.799901)"><g><path d="M 33.703125 -8.125 L 14.421875 -8.125 L 11.21875 0 L -0.3125 0 L 18.71875 -44.09375 L 30.234375 -44.09375 L 48.828125 0 L 36.859375 0 Z M 30.421875 -16.625 L 24.125 -32.953125 L 17.703125 -16.625 Z M 30.421875 -16.625 "/></g></g></g><g fill="#000000" fill-opacity="1"><g transform="translate(531.81292, 148.799901)"><g><path d="M 15.625 -9.390625 L 34.328125 -9.390625 L 34.328125 0 L 4.40625 0 L 4.40625 -44.09375 L 15.625 -44.09375 Z M 15.625 -9.390625 "/></g></g></g><g fill="#000000" fill-opacity="1"><g transform="translate(567.079034, 148.799901)"><g/></g></g><g fill="#000000" fill-opacity="1"><g transform="translate(227.16499, 236.549896)"><g/></g></g><g fill="#000000" fill-opacity="1"><g transform="translate(241.77827, 236.549896)"><g/></g></g><g fill="#000000" fill-opacity="1"><g transform="translate(256.391551, 236.549896)"><g/></g></g><g fill="#000000" fill-opacity="1"><g transform="translate(271.004831, 236.549896)"><g/></g></g><g fill="#000000" fill-opacity="1"><g transform="translate(285.618111, 236.549896)"><g/></g></g><g fill="#000000" fill-opacity="1"><g transform="translate(300.231392, 236.549896)"><g><path d="M 21.359375 -44.609375 C 27.953125 -44.609375 33.75 -42.96875 38.75 -39.6875 L 34.53125 -30.9375 C 32.21875 -32.28125 29.738281 -33.378906 27.09375 -34.234375 C 24.445312 -35.097656 22.21875 -35.53125 20.40625 -35.53125 C 17.175781 -35.53125 15.5625 -34.457031 15.5625 -32.3125 C 15.5625 -30.925781 16.359375 -29.8125 17.953125 -28.96875 C 19.546875 -28.132812 21.488281 -27.410156 23.78125 -26.796875 C 26.070312 -26.191406 28.359375 -25.457031 30.640625 -24.59375 C 32.929688 -23.738281 34.875 -22.34375 36.46875 -20.40625 C 38.070312 -18.476562 38.875 -16.046875 38.875 -13.109375 C 38.875 -8.859375 37.210938 -5.546875 33.890625 -3.171875 C 30.578125 -0.804688 26.359375 0.375 21.234375 0.375 C 17.578125 0.375 13.960938 -0.253906 10.390625 -1.515625 C 6.828125 -2.773438 3.722656 -4.492188 1.078125 -6.671875 L 5.421875 -15.3125 C 7.640625 -13.375 10.257812 -11.785156 13.28125 -10.546875 C 16.3125 -9.304688 19.003906 -8.6875 21.359375 -8.6875 C 23.160156 -8.6875 24.566406 -9.007812 25.578125 -9.65625 C 26.585938 -10.3125 27.09375 -11.269531 27.09375 -12.53125 C 27.09375 -13.75 26.515625 -14.769531 25.359375 -15.59375 C 24.203125 -16.414062 22.757812 -17.023438 21.03125 -17.421875 C 19.3125 -17.816406 17.441406 -18.347656 15.421875 -19.015625 C 13.410156 -19.691406 11.546875 -20.425781 9.828125 -21.21875 C 8.109375 -22.019531 6.671875 -23.289062 5.515625 -25.03125 C 4.359375 -26.78125 3.78125 -28.875 3.78125 -31.3125 C 3.78125 -35.34375 5.382812 -38.566406 8.59375 -40.984375 C 11.8125 -43.398438 16.066406 -44.609375 21.359375 -44.609375 Z M 21.359375 -44.609375 "/></g></g></g><g fill="#000000" fill-opacity="1"><g transform="translate(340.795842, 236.549896)"><g><path d="M 33.140625 0 L 21.484375 -17.328125 L 15.625 -10.84375 L 15.625 0 L 4.40625 0 L 4.40625 -44.09375 L 15.625 -44.09375 L 15.625 -25.015625 L 32.515625 -44.09375 L 45.484375 -44.09375 L 29.109375 -25.828125 L 46.5625 0 Z M 33.140625 0 "/></g></g></g><g fill="#000000" fill-opacity="1"><g transform="translate(387.848085, 236.549896)"><g><path d="M 38.9375 -35.28125 L 15.625 -35.28125 L 15.625 -26.515625 L 36.671875 -26.515625 L 36.671875 -17.703125 L 15.625 -17.703125 L 15.625 -8.8125 L 39.625 -8.8125 L 39.625 0 L 4.40625 0 L 4.40625 -44.09375 L 38.9375 -44.09375 Z M 38.9375 -35.28125 "/></g></g></g><g fill="#000000" fill-opacity="1"><g transform="translate(430.302184, 236.549896)"><g><path d="M 38.109375 -35.09375 L 24.828125 -35.09375 L 24.828125 0 L 13.609375 0 L 13.609375 -35.09375 L 0.4375 -35.09375 L 0.4375 -44.15625 L 38.109375 -44.15625 Z M 38.109375 -35.09375 "/></g></g></g><g fill="#000000" fill-opacity="1"><g transform="translate(468.788022, 236.549896)"><g><path d="M 25.078125 -44.484375 C 28.347656 -44.484375 31.566406 -43.8125 34.734375 -42.46875 C 37.910156 -41.125 40.613281 -39.316406 42.84375 -37.046875 L 36.34375 -29.359375 C 34.914062 -31.117188 33.203125 -32.515625 31.203125 -33.546875 C 29.210938 -34.578125 27.234375 -35.09375 25.265625 -35.09375 C 21.773438 -35.09375 18.851562 -33.863281 16.5 -31.40625 C 14.15625 -28.945312 12.984375 -25.910156 12.984375 -22.296875 C 12.984375 -18.609375 14.15625 -15.523438 16.5 -13.046875 C 18.851562 -10.566406 21.773438 -9.328125 25.265625 -9.328125 C 27.109375 -9.328125 29.023438 -9.785156 31.015625 -10.703125 C 33.015625 -11.628906 34.789062 -12.890625 36.34375 -14.484375 L 42.90625 -7.5625 C 40.507812 -5.125 37.679688 -3.171875 34.421875 -1.703125 C 31.171875 -0.234375 27.929688 0.5 24.703125 0.5 C 18.054688 0.5 12.53125 -1.660156 8.125 -5.984375 C 3.71875 -10.304688 1.515625 -15.703125 1.515625 -22.171875 C 1.515625 -28.515625 3.757812 -33.816406 8.25 -38.078125 C 12.75 -42.347656 18.359375 -44.484375 25.078125 -44.484375 Z M 25.078125 -44.484375 "/></g></g></g><g fill="#000000" fill-opacity="1"><g transform="translate(512.37591, 236.549896)"><g><path d="M 45.109375 0 L 33.890625 0 L 33.890625 -17.140625 L 15.625 -17.140625 L 15.625 0 L 4.40625 0 L 4.40625 -44.09375 L 15.625 -44.09375 L 15.625 -25.953125 L 33.890625 -25.953125 L 33.890625 -44.09375 L 45.109375 -44.09375 Z M 45.109375 0 "/></g></g></g><g fill="#000000" fill-opacity="1"><g transform="translate(228.020459, 324.29989)"><g><path d="M 21.359375 -44.609375 C 27.953125 -44.609375 33.75 -42.96875 38.75 -39.6875 L 34.53125 -30.9375 C 32.21875 -32.28125 29.738281 -33.378906 27.09375 -34.234375 C 24.445312 -35.097656 22.21875 -35.53125 20.40625 -35.53125 C 17.175781 -35.53125 15.5625 -34.457031 15.5625 -32.3125 C 15.5625 -30.925781 16.359375 -29.8125 17.953125 -28.96875 C 19.546875 -28.132812 21.488281 -27.410156 23.78125 -26.796875 C 26.070312 -26.191406 28.359375 -25.457031 30.640625 -24.59375 C 32.929688 -23.738281 34.875 -22.34375 36.46875 -20.40625 C 38.070312 -18.476562 38.875 -16.046875 38.875 -13.109375 C 38.875 -8.859375 37.210938 -5.546875 33.890625 -3.171875 C 30.578125 -0.804688 26.359375 0.375 21.234375 0.375 C 17.578125 0.375 13.960938 -0.253906 10.390625 -1.515625 C 6.828125 -2.773438 3.722656 -4.492188 1.078125 -6.671875 L 5.421875 -15.3125 C 7.640625 -13.375 10.257812 -11.785156 13.28125 -10.546875 C 16.3125 -9.304688 19.003906 -8.6875 21.359375 -8.6875 C 23.160156 -8.6875 24.566406 -9.007812 25.578125 -9.65625 C 26.585938 -10.3125 27.09375 -11.269531 27.09375 -12.53125 C 27.09375 -13.75 26.515625 -14.769531 25.359375 -15.59375 C 24.203125 -16.414062 22.757812 -17.023438 21.03125 -17.421875 C 19.3125 -17.816406 17.441406 -18.347656 15.421875 -19.015625 C 13.410156 -19.691406 11.546875 -20.425781 9.828125 -21.21875 C 8.109375 -22.019531 6.671875 -23.289062 5.515625 -25.03125 C 4.359375 -26.78125 3.78125 -28.875 3.78125 -31.3125 C 3.78125 -35.34375 5.382812 -38.566406 8.59375 -40.984375 C 11.8125 -43.398438 16.066406 -44.609375 21.359375 -44.609375 Z M 21.359375 -44.609375 "/></g></g></g><g fill="#000000" fill-opacity="1"><g transform="translate(268.58491, 324.29989)"><g><path d="M 25.328125 -44.484375 C 32.171875 -44.484375 37.859375 -42.347656 42.390625 -38.078125 C 46.929688 -33.816406 49.203125 -28.492188 49.203125 -22.109375 C 49.203125 -15.679688 46.921875 -10.304688 42.359375 -5.984375 C 37.804688 -1.660156 32.128906 0.5 25.328125 0.5 C 18.523438 0.5 12.851562 -1.648438 8.3125 -5.953125 C 3.78125 -10.253906 1.515625 -15.640625 1.515625 -22.109375 C 1.515625 -28.535156 3.78125 -33.867188 8.3125 -38.109375 C 12.851562 -42.359375 18.523438 -44.484375 25.328125 -44.484375 Z M 25.453125 -35.09375 C 22.003906 -35.09375 19.0625 -33.84375 16.625 -31.34375 C 14.195312 -28.84375 12.984375 -25.742188 12.984375 -22.046875 C 12.984375 -18.347656 14.207031 -15.226562 16.65625 -12.6875 C 19.113281 -10.15625 22.046875 -8.890625 25.453125 -8.890625 C 28.859375 -8.890625 31.742188 -10.15625 34.109375 -12.6875 C 36.484375 -15.226562 37.671875 -18.347656 37.671875 -22.046875 C 37.671875 -25.742188 36.484375 -28.84375 34.109375 -31.34375 C 31.742188 -33.84375 28.859375 -35.09375 25.453125 -35.09375 Z M 25.453125 -35.09375 "/></g></g></g><g fill="#000000" fill-opacity="1"><g transform="translate(319.290473, 324.29989)"><g><path d="M 15.625 -9.390625 L 34.328125 -9.390625 L 34.328125 0 L 4.40625 0 L 4.40625 -44.09375 L 15.625 -44.09375 Z M 15.625 -9.390625 "/></g></g></g><g fill="#000000" fill-opacity="1"><g transform="translate(354.563908, 324.29989)"><g><path d="M 44.09375 -44.09375 L 44.09375 -18.515625 C 44.09375 -12.679688 42.285156 -8.050781 38.671875 -4.625 C 35.066406 -1.207031 30.175781 0.5 24 0.5 C 17.78125 0.5 12.832031 -1.207031 9.15625 -4.625 C 5.488281 -8.050781 3.65625 -12.679688 3.65625 -18.515625 L 3.65625 -44.09375 L 14.875 -44.09375 L 14.875 -18.515625 C 14.875 -15.578125 15.722656 -13.238281 17.421875 -11.5 C 19.117188 -9.757812 21.332031 -8.890625 24.0625 -8.890625 C 26.75 -8.890625 28.898438 -9.75 30.515625 -11.46875 C 32.140625 -13.1875 32.953125 -15.535156 32.953125 -18.515625 L 32.953125 -44.09375 Z M 44.09375 -44.09375 "/></g></g></g><g fill="#000000" fill-opacity="1"><g transform="translate(402.309022, 324.29989)"><g><path d="M 38.109375 -35.09375 L 24.828125 -35.09375 L 24.828125 0 L 13.609375 0 L 13.609375 -35.09375 L 0.4375 -35.09375 L 0.4375 -44.15625 L 38.109375 -44.15625 Z M 38.109375 -35.09375 "/></g></g></g><g fill="#000000" fill-opacity="1"><g transform="translate(440.794859, 324.29989)"><g><path d="M 15.625 0 L 4.40625 0 L 4.40625 -44.09375 L 15.625 -44.09375 Z M 15.625 0 "/></g></g></g><g fill="#000000" fill-opacity="1"><g transform="translate(460.825131, 324.29989)"><g><path d="M 25.328125 -44.484375 C 32.171875 -44.484375 37.859375 -42.347656 42.390625 -38.078125 C 46.929688 -33.816406 49.203125 -28.492188 49.203125 -22.109375 C 49.203125 -15.679688 46.921875 -10.304688 42.359375 -5.984375 C 37.804688 -1.660156 32.128906 0.5 25.328125 0.5 C 18.523438 0.5 12.851562 -1.648438 8.3125 -5.953125 C 3.78125 -10.253906 1.515625 -15.640625 1.515625 -22.109375 C 1.515625 -28.535156 3.78125 -33.867188 8.3125 -38.109375 C 12.851562 -42.359375 18.523438 -44.484375 25.328125 -44.484375 Z M 25.453125 -35.09375 C 22.003906 -35.09375 19.0625 -33.84375 16.625 -31.34375 C 14.195312 -28.84375 12.984375 -25.742188 12.984375 -22.046875 C 12.984375 -18.347656 14.207031 -15.226562 16.65625 -12.6875 C 19.113281 -10.15625 22.046875 -8.890625 25.453125 -8.890625 C 28.859375 -8.890625 31.742188 -10.15625 34.109375 -12.6875 C 36.484375 -15.226562 37.671875 -18.347656 37.671875 -22.046875 C 37.671875 -25.742188 36.484375 -28.84375 34.109375 -31.34375 C 31.742188 -33.84375 28.859375 -35.09375 25.453125 -35.09375 Z M 25.453125 -35.09375 "/></g></g></g><g fill="#000000" fill-opacity="1"><g transform="translate(511.530694, 324.29989)"><g><path d="M 45.109375 0 L 35.21875 0 L 14.9375 -27.15625 L 14.9375 0 L 4.40625 0 L 4.40625 -44.09375 L 14.296875 -44.09375 L 34.65625 -16.890625 L 34.65625 -44.09375 L 45.109375 -44.09375 Z M 45.109375 0 "/></g></g></g></svg>