<svg xmlns="http://www.w3.org/2000/svg" xmlns:xlink="http://www.w3.org/1999/xlink" width="1000" zoomAndPan="magnify" viewBox="0 0 750 374.999991" height="500" preserveAspectRatio="xMidYMid meet" version="1.0"><defs><clipPath id="0f523bd56b"><path d="M 197 12 L 541 12 L 541 356 L 197 356 Z M 197 12 " clip-rule="nonzero"/></clipPath><clipPath id="e9c4613b81"><path d="M 125.9375 183.800781 L 368.828125 -59.09375 L 611.722656 183.800781 L 368.828125 426.691406 Z M 125.9375 183.800781 " clip-rule="nonzero"/></clipPath><clipPath id="cfa6b2fad1"><path d="M 125.9375 183.800781 L 368.828125 -59.09375 L 611.722656 183.800781 L 368.828125 426.691406 Z M 125.9375 183.800781 " clip-rule="nonzero"/></clipPath></defs><rect x="-75" width="900" fill="#ffffff" y="-37.499999" height="449.999989" fill-opacity="1"/><rect x="-75" width="900" fill="#ffffff" y="-37.499999" height="449.999989" fill-opacity="1"/><g clip-path="url(#0f523bd56b)"><g clip-path="url(#e9c4613b81)"><g clip-path="url(#cfa6b2fad1)"><path fill="#145da0" d="M 247.378906 62.3125 C 180.417969 129.273438 180.417969 238.230469 247.378906 305.191406 C 314.339844 372.15625 423.296875 372.15625 490.261719 305.191406 C 557.222656 238.230469 557.222656 129.277344 490.257812 62.3125 C 423.296875 -4.648438 314.339844 -4.652344 247.378906 62.3125 Z M 441.3125 163.402344 C 433.410156 154.140625 425.011719 145.039062 416.273438 136.296875 C 406.273438 126.296875 395.800781 116.738281 385.148438 107.867188 C 419.761719 82.660156 447.902344 71.855469 464.09375 72.414062 C 466.953125 74.863281 469.761719 77.398438 472.46875 80.105469 C 481.011719 88.648438 471.0625 122.007812 441.3125 163.402344 Z M 265.171875 287.402344 C 262.378906 284.609375 259.765625 281.707031 257.246094 278.753906 C 256.582031 261.105469 269.84375 230.605469 295.964844 195.882812 C 297.140625 197.304688 298.320312 198.722656 299.515625 200.128906 C 302.464844 203.605469 305.527344 207.09375 308.605469 210.496094 C 313.828125 216.273438 319.320312 222.046875 324.921875 227.648438 C 333.972656 236.695312 343.265625 245.207031 352.664062 253.1875 C 309.34375 285.316406 274.003906 296.234375 265.171875 287.402344 Z M 364.839844 243.746094 C 354.929688 235.464844 345.132812 226.507812 335.597656 216.972656 C 330.171875 211.546875 324.859375 205.960938 319.800781 200.371094 C 316.828125 197.078125 313.871094 193.707031 311.015625 190.351562 C 309.148438 188.15625 307.320312 185.9375 305.511719 183.722656 C 314.378906 172.871094 324.398438 161.730469 335.597656 150.53125 L 324.925781 139.855469 C 314.808594 149.972656 305.074219 160.691406 296.042969 171.625 C 268.609375 135.089844 256.898438 105.320312 257.480469 88.476562 C 259.929688 85.617188 262.46875 82.808594 265.171875 80.105469 C 276.980469 68.296875 336.171875 91.78125 398.480469 154.089844 C 408.511719 164.121094 417.523438 174.066406 425.558594 183.753906 C 417.523438 193.4375 408.511719 203.382812 398.480469 213.414062 C 387.070312 224.824219 375.769531 234.917969 364.839844 243.746094 Z M 446.171875 59.277344 C 423.71875 64.816406 397.167969 80.085938 372.972656 98.09375 C 346.808594 77.882812 320.238281 62.460938 297.390625 55.785156 C 343.628906 30 400.9375 31.164062 446.171875 59.277344 Z M 244.34375 106.398438 C 250.207031 130.164062 266.972656 158.523438 286.34375 183.8125 C 265.617188 210.894531 249.964844 238.488281 244.402344 261.203125 C 215.015625 213.996094 214.996094 153.621094 244.34375 106.398438 Z M 297.394531 311.71875 C 333.179688 301.257812 378.125 269.355469 416.273438 231.207031 C 425.011719 222.464844 433.410156 213.363281 441.3125 204.101562 C 471.0625 245.496094 481.011719 278.855469 472.46875 287.402344 C 469.75 290.117188 466.929688 292.664062 464.058594 295.125 C 450.378906 295.636719 427.699219 288.136719 397.632812 268.304688 L 389.320312 280.910156 C 410.855469 295.109375 430.171875 304.25 446.308594 308.144531 C 401.050781 336.339844 343.675781 337.53125 297.394531 311.71875 Z M 496.789062 255.179688 C 490.460938 233.542969 476.316406 208.5625 457.664062 183.75 C 476.316406 158.941406 490.460938 133.960938 496.785156 112.324219 C 521.457031 156.566406 521.457031 210.9375 496.789062 255.179688 Z M 496.789062 255.179688 " fill-opacity="1" fill-rule="nonzero"/></g></g></g></svg>