<svg xmlns="http://www.w3.org/2000/svg" xmlns:xlink="http://www.w3.org/1999/xlink" width="1000" zoomAndPan="magnify" viewBox="0 0 750 374.999991" height="500" preserveAspectRatio="xMidYMid meet" version="1.0"><defs><clipPath id="e303165fb5"><path d="M 256 68 L 494 68 L 494 307 L 256 307 Z M 256 68 " clip-rule="nonzero"/></clipPath><clipPath id="0c0ef9daa1"><path d="M 206.839844 187.496094 L 374.957031 19.382812 L 543.070312 187.496094 L 374.957031 355.613281 Z M 206.839844 187.496094 " clip-rule="nonzero"/></clipPath><clipPath id="3b22dfe864"><path d="M 206.839844 187.496094 L 374.957031 19.382812 L 543.070312 187.496094 L 374.957031 355.613281 Z M 206.839844 187.496094 " clip-rule="nonzero"/></clipPath></defs><rect x="-75" width="900" fill="#ffffff" y="-37.499999" height="449.999989" fill-opacity="1"/><rect x="-75" width="900" fill="#ffffff" y="-37.499999" height="449.999989" fill-opacity="1"/><g clip-path="url(#e303165fb5)"><g clip-path="url(#0c0ef9daa1)"><g clip-path="url(#3b22dfe864)"><path fill="#56aeff" d="M 290.894531 103.410156 C 244.546875 149.757812 244.546875 225.171875 290.894531 271.519531 C 337.242188 317.867188 412.65625 317.867188 459.003906 271.519531 C 505.351562 225.171875 505.347656 149.757812 459 103.414062 C 412.652344 57.066406 337.242188 57.0625 290.894531 103.410156 Z M 425.125 173.378906 C 419.652344 166.96875 413.84375 160.667969 407.792969 154.621094 C 400.871094 147.699219 393.621094 141.082031 386.25 134.941406 C 410.207031 117.496094 429.6875 110.019531 440.894531 110.402344 C 442.871094 112.097656 444.816406 113.855469 446.6875 115.726562 C 452.601562 121.640625 445.714844 144.730469 425.125 173.378906 Z M 303.210938 259.203125 C 301.277344 257.273438 299.46875 255.261719 297.722656 253.21875 C 297.265625 241.003906 306.445312 219.894531 324.523438 195.863281 C 325.335938 196.84375 326.152344 197.828125 326.980469 198.800781 C 329.023438 201.207031 331.140625 203.617188 333.273438 205.976562 C 336.886719 209.972656 340.6875 213.96875 344.566406 217.847656 C 350.828125 224.109375 357.261719 230 363.765625 235.523438 C 333.78125 257.761719 309.324219 265.316406 303.210938 259.203125 Z M 372.195312 228.988281 C 365.335938 223.257812 358.554688 217.058594 351.957031 210.457031 C 348.199219 206.703125 344.519531 202.835938 341.023438 198.964844 C 338.960938 196.6875 336.917969 194.355469 334.941406 192.03125 C 333.648438 190.511719 332.382812 188.976562 331.132812 187.445312 C 337.265625 179.933594 344.203125 172.222656 351.957031 164.472656 L 344.566406 157.082031 C 337.566406 164.085938 330.828125 171.503906 324.578125 179.074219 C 305.589844 153.785156 297.484375 133.179688 297.886719 121.519531 C 299.582031 119.542969 301.335938 117.597656 303.210938 115.726562 C 311.382812 107.550781 352.351562 123.808594 395.480469 166.933594 C 402.421875 173.878906 408.660156 180.761719 414.21875 187.464844 C 408.660156 194.167969 402.421875 201.054688 395.480469 207.996094 C 387.582031 215.890625 379.757812 222.878906 372.195312 228.988281 Z M 428.488281 101.308594 C 412.945312 105.144531 394.570312 115.714844 377.824219 128.175781 C 359.714844 114.1875 341.324219 103.515625 325.511719 98.894531 C 357.515625 81.046875 397.179688 81.851562 428.488281 101.308594 Z M 288.792969 133.925781 C 292.851562 150.375 304.457031 170 317.863281 187.507812 C 303.519531 206.25 292.683594 225.351562 288.835938 241.070312 C 268.496094 208.398438 268.480469 166.609375 288.792969 133.925781 Z M 325.511719 276.035156 C 350.28125 268.796875 381.390625 246.714844 407.792969 220.308594 C 413.84375 214.261719 419.652344 207.960938 425.125 201.550781 C 445.714844 230.199219 452.601562 253.289062 446.6875 259.203125 C 444.808594 261.085938 442.855469 262.847656 440.867188 264.550781 C 431.402344 264.90625 415.703125 259.710938 394.890625 245.988281 L 389.140625 254.710938 C 404.042969 264.539062 417.414062 270.863281 428.582031 273.558594 C 397.257812 293.074219 357.546875 293.898438 325.511719 276.035156 Z M 463.519531 236.902344 C 459.140625 221.925781 449.351562 204.636719 436.441406 187.464844 C 449.351562 170.292969 459.140625 153.003906 463.519531 138.027344 C 480.59375 168.648438 480.59375 206.28125 463.519531 236.902344 Z M 463.519531 236.902344 " fill-opacity="1" fill-rule="nonzero"/></g></g></g></svg>